<?xml version="1.0" encoding="utf-8"?>
<svg version="1.1" id="Warstwa_1" xmlns="http://www.w3.org/2000/svg" xmlns:xlink="http://www.w3.org/1999/xlink" x="0px" y="0px"
	 viewBox="0 0 150 35" style="enable-background:new 0 0 150 35;" xml:space="preserve">
<style type="text/css">
	.st0{enable-background:new    ;}
	.st1{fill:#F1F1F6;}
	.st2{fill:#FDDABB;}
	.st3{fill:#FFBD54;}
	.st4{fill:none;}
	.st5{fill:#FE845F;}
</style>
<g class="st0">
	<path class="st1" d="M61.41,24.69l-3.28-10.8h2.47l1.83,6.13l0.51,2.78h0.18l0.81-3l2.29-5.91h3.04l2.31,5.91l0.81,3h0.18
		l0.51-2.78l1.83-6.13h2.42l-3.32,10.8h-2.95l-2.4-6.22l-0.84-2.65h-0.18l-0.84,2.65l-2.42,6.22H61.41z"/>
	<path class="st1" d="M78.07,19.3c0-3.37,2.33-5.63,5.9-5.63c3.39,0,5.7,1.85,5.7,5.13c0,0.39-0.02,0.7-0.09,1.02h-9.29
		c0.09,2.09,1.12,3.19,3.66,3.19c2.29,0,3.24-0.74,3.24-2.02v-0.17h2.38v0.2c0,2.3-2.29,3.89-5.55,3.89
		C80.42,24.91,78.07,22.91,78.07,19.3z M80.31,18.52h7.11v-0.04c0-2-1.17-2.96-3.5-2.96C81.5,15.52,80.45,16.59,80.31,18.52z"/>
	<path class="st1" d="M96.12,24.69c-2.35,0-3.81-1.02-3.81-3.65v-5.19h-1.85v-1.96h1.85v-2.37h2.35v2.37h3.96v1.96h-3.96v5.06
		c0,1.33,0.62,1.67,1.98,1.67h1.98v2.11H96.12z"/>
	<path class="st1" d="M99.68,19.3c0-3.37,2.33-5.63,5.9-5.63c3.39,0,5.7,1.85,5.7,5.13c0,0.39-0.02,0.7-0.09,1.02h-9.29
		c0.09,2.09,1.12,3.19,3.65,3.19c2.29,0,3.24-0.74,3.24-2.02v-0.17h2.38v0.2c0,2.3-2.29,3.89-5.55,3.89
		C102.04,24.91,99.68,22.91,99.68,19.3z M101.93,18.52h7.11v-0.04c0-2-1.17-2.96-3.5-2.96C103.12,15.52,102.06,16.59,101.93,18.52z"
		/>
	<path class="st1" d="M112.58,22.08c0-1.67,1.36-2.54,3.52-2.78l4.97-0.52v-0.63c0-1.78-0.79-2.41-2.88-2.41
		c-2.03,0-3.02,0.65-3.02,2.24v0.09h-2.36v-0.09c0-2.46,2.07-4.3,5.55-4.3s5.04,1.87,5.04,4.46v6.56h-2.18V22h-0.15
		c-0.57,1.83-2.31,2.91-4.8,2.91C114.01,24.91,112.58,23.87,112.58,22.08z M116.92,23.21c2.49,0,4.16-0.91,4.16-3.04l-4.29,0.48
		c-1.23,0.15-1.83,0.43-1.83,1.28C114.96,22.8,115.55,23.21,116.92,23.21z"/>
	<path class="st1" d="M125.08,19.3c0-3.37,2.36-5.63,5.97-5.63c3.28,0,5.68,1.82,5.68,4.52v0.22h-2.36v-0.13
		c0-1.67-1.23-2.5-3.37-2.5c-2.47,0-3.57,1.15-3.57,3.52c0,2.33,1.1,3.5,3.57,3.5c2.14,0,3.37-0.83,3.37-2.5v-0.15h2.36v0.24
		c0,2.69-2.4,4.52-5.68,4.52C127.44,24.91,125.08,22.63,125.08,19.3z"/>
	<path class="st1" d="M138.49,24.69V10.13h2.38v7.06H141c0.37-1.83,1.72-3.52,4.51-3.52c3.02,0,4.49,1.96,4.49,4.59v6.43h-2.36
		v-5.87c0-2.17-0.99-3.04-3.26-3.04c-2.6,0-3.52,1.39-3.52,3.67v5.24H138.49z"/>
</g>
<path id="Path_1" class="st2" d="M14.63,7.78c-0.23-0.27-0.43-0.56-0.61-0.87l-2.22-3.8C10.67,1.19,8.58,0,6.32,0l0,0
	C2.83,0,0,2.79,0,6.24c0,1.1,0.29,2.17,0.85,3.12l13.17,22.52c1.75,2.98,5.61,4.01,8.63,2.29c0.96-0.55,1.76-1.34,2.31-2.29
	l1.74-2.98L15.28,9.36C14.99,8.87,14.77,8.34,14.63,7.78z"/>
<path id="Path_2" class="st2" d="M38.79,7.78c0.86-3.34-1.19-6.74-4.58-7.59C33.7,0.06,33.18,0,32.66,0l0,0
	c-2.26,0-4.34,1.19-5.47,3.12l-0.48,0.81l1.74,2.98c1.75,2.98,5.61,4.01,8.64,2.28C37.74,8.83,38.31,8.35,38.79,7.78z"/>
<path id="Path_4" class="st3" d="M47.1,0L47.1,0c-2.26,0-4.35,1.19-5.47,3.12l-2.22,3.8c-0.18,0.31-0.38,0.6-0.61,0.87
	c-0.15,0.55-0.37,1.09-0.66,1.58L26.71,28.89l1.74,2.98c1.75,2.98,5.61,4.01,8.63,2.28c0.96-0.55,1.76-1.34,2.31-2.28L52.57,9.36
	c1.74-2.99,0.71-6.8-2.32-8.52C49.29,0.29,48.2,0,47.1,0z"/>
<path class="st4" d="M24.96,6.93c0,0,0-0.01,0.01-0.01l0,0l0,0C24.96,6.92,24.96,6.92,24.96,6.93z"/>
<rect x="24.11" y="5.42" transform="matrix(0.5497 -0.8353 0.8353 0.5497 7.1016 24.0237)" class="st5" width="3.45" height="0"/>
<path class="st5" d="M29.89,8.59c-0.57-0.47-1.06-1.04-1.43-1.68l-1.74-2.98l-1.74,2.98l0,0l0,0c0,0,0,0.01-0.01,0.01
	c-1.75,2.98-5.61,3.99-8.63,2.27c-0.64-0.37-1.22-0.84-1.69-1.41c0,0,0,0-0.01-0.01c0.15,0.55,0.37,1.09,0.66,1.58L26.71,28.9
	L38.13,9.36c0.29-0.5,0.51-1.03,0.66-1.58C36.56,10.43,32.57,10.8,29.89,8.59z"/>
<path id="Path_2_00000026847716486978099920000008981461252933775282_" class="st3" d="M14.63,7.78c-0.86-3.34,1.19-6.74,4.58-7.59
	C19.72,0.06,20.24,0,20.76,0l0,0c2.26,0,4.34,1.19,5.47,3.12l0.48,0.81l-1.74,2.98c-1.75,2.98-5.61,4.01-8.64,2.28
	C15.68,8.83,15.11,8.35,14.63,7.78z"/>
</svg>
